/* XPM */
static char *result[] = {
/* columns rows colors chars-per-pixel */
"16 16 73 1 ",
"  c #010502",
". c #020A06",
"X c #030F08",
"o c #05180D",
"O c #051A0E",
"+ c #061A0E",
"@ c #061B0F",
"# c #061D0F",
"$ c #072011",
"% c #072414",
"& c #082715",
"* c #092815",
"= c #0A301B",
"- c #0A311B",
"; c #0C391F",
": c #0D3F22",
"> c #0E4324",
", c #0E4425",
"< c #0F4526",
"1 c #104A29",
"2 c #104B29",
"3 c #11542D",
"4 c #135830",
"5 c #135930",
"6 c #145E33",
"7 c #145F33",
"8 c #146034",
"9 c #156034",
"0 c #146035",
"q c #146135",
"w c #166939",
"e c #166A3A",
"r c #166B3A",
"t c #176B3B",
"y c #17703D",
"u c #17723E",
"i c #18723D",
"p c #18723E",
"a c #18733E",
"s c #18743F",
"d c #19753F",
"f c #187540",
"g c #197640",
"h c #197740",
"j c #197741",
"k c #1D8A4B",
"l c #1D8C4C",
"z c #1D8E4D",
"x c #1D8F4D",
"c c #1F924F",
"v c #1F9350",
"b c #219A54",
"n c #209D55",
"m c #22A056",
"M c #23A459",
"N c #24A95C",
"B c #25B05F",
"V c #26B764",
"C c #27B964",
"Z c #28BB66",
"A c #29C46A",
"S c #2AC56B",
"D c #2AC76C",
"F c #2AC96D",
"G c #2ACA6E",
"H c #2ACB6E",
"J c #2BD071",
"K c #2BD171",
"L c #2CD070",
"P c #2CD071",
"I c #2CD171",
"U c #2CD172",
"Y c None",
/* pixels */
"YYYYYYYYYYYYYYYY",
"YYYYYYYJIYYYYYYY",
"YYYYYYYxbYYYYYYY",
"YYYYYYYqgYYYYYYY",
"YPJJYYY0dYYYPKPY",
"YPwBPYY9sYYPNfJY",
"YJ:@AJY7aYJZ#2JY",
"YYC*OJY7aYDo-VYY",
"YYJG@+S6iFX&HKYY",
"YYYPL&,15;=PPYYY",
"YImkkA<$%>FklMUY",
"YYy4 jn8act.3pYY",
"YYYJurv0azehPYYY",
"YYYYYYYYYYYYYYYY",
"YYYYYYYYYYYYYYYY",
"YYYYYYYYYYYYYYYY"
};
