/* XPM */
static char *result[] = {
/* columns rows colors chars-per-pixel */
"128 128 46 1 ",
"  c #000000",
". c #020C06",
"X c #030E08",
"o c #04140B",
"O c #061B0F",
"+ c #061E11",
"@ c #072213",
"# c #082514",
"$ c #092916",
"% c #0A2E19",
"& c #0B331C",
"* c #0C391E",
"= c #0D3D21",
"- c #0E4325",
"; c #0F4827",
": c #0F4928",
"> c #104D2A",
", c #12542E",
"< c #135730",
"1 c #135B31",
"2 c #156336",
"3 c #156638",
"4 c #166B3A",
"5 c #17713D",
"6 c #18723E",
"7 c #197741",
"8 c #1A7C43",
"9 c #1B8246",
"0 c #1C8649",
"q c #1D8B4C",
"w c #1E914F",
"e c #1F9551",
"r c #209651",
"t c #209B54",
"y c #22A157",
"u c #22A459",
"i c #24AB5D",
"p c #25B05F",
"a c #26B562",
"s c #27B964",
"d c #28BD67",
"f c #29C46B",
"g c #2BCB6E",
"h c #2BCE70",
"j c #2CD071",
"k c None",
/* pixels */
"kkkkkkkkkkkkkkkkkkkkkkkkkkkkkkkkkkkkkkkkkkkkkkkkkkkkkkkkkkkkkjjjjjjkkkkkkkkkkkkkkkkkkkkkkkkkkkkkkkkkkkkkkkkkkkkkkkkkkkkkkkkkkkkk",
"kkkkkkkkkkkkkkkkkkkkkkkkkkkkkkkkkkkkkkkkkkkkkkkkkkkkkkkkkkkkjjjjjjjkkkkkkkkkkkkkkkkkkkkkkkkkkkkkkkkkkkkkkkkkkkkkkkkkkkkkkkkkkkkk",
"kkkkkkkkkkkkkkkkkkkkkkkkkkkkkkkkkkkkkkkkkkkkkkkkkkkkkkkkkkkkjjjjjjjkkkkkkkkkkkkkkkkkkkkkkkkkkkkkkkkkkkkkkkkkkkkkkkkkkkkkkkkkkkkk",
"kkkkkkkkkkkkkkkkkkkkkkkkkkkkkkkkkkkkkkkkkkkkkkkkkkkkkkkkkkkkjjjjjjjkkkkkkkkkkkkkkkkkkkkkkkkkkkkkkkkkkkkkkkkkkkkkkkkkkkkkkkkkkkkk",
"kkkkkkkkkkkkkkkkkkkkkkkkkkkkkkkkkkkkkkkkkkkkkkkkkkkkkkkkkkkkjjjjjjjkkkkkkkkkkkkkkkkkkkkkkkkkkkkkkkkkkkkkkkkkkkkkkkkkkkkkkkkkkkkk",
"kkkkkkkkkkkkkkkkkkkkkkkkkkkkkkkkkkkkkkkkkkkkkkkkkkkkkkkkkkkkjjjjjjjkkkkkkkkkkkkkkkkkkkkkkkkkkkkkkkkkkkkkkkkkkkkkkkkkkkkkkkkkkkkk",
"kkkkkkkkkkkkkkkkkkkkkkkkkkkkkkkkkkkkkkkkkkkkkkkkkkkkkkkkkkkkjjjjjjjkkkkkkkkkkkkkkkkkkkkkkkkkkkkkkkkkkkkkkkkkkkkkkkkkkkkkkkkkkkkk",
"kkkkkkkkkkkkkkkkkkkkkkkkkkkkkkkkkkkkkkkkkkkkkkkkkkkkkkkkkkkkjjjjjjjkkkkkkkkkkkkkkkkkkkkkkkkkkkkkkkkkkkkkkkkkkkkkkkkkkkkkkkkkkkkk",
"kkkkkkkkkkkkkkkkkkkkkkkkkkkkkkkkkkkkkkkkkkkkkkkkkkkkkkkkkkkkjjjjjjjkkkkkkkkkkkkkkkkkkkkkkkkkkkkkkkkkkkkkkkkkkkkkkkkkkkkkkkkkkkkk",
"kkkkkkkkkkkkkkkkkkkkkkkkkkkkkkkkkkkkkkkkkkkkkkkkkkkkkkkkkkkkjjjjjjjkkkkkkkkkkkkkkkkkkkkkkkkkkkkkkkkkkkkkkkkkkkkkkkkkkkkkkkkkkkkk",
"kkkkkkkkkkkkkkkkkkkkkkkkkkkkkkkkkkkkkkkkkkkkkkkkkkkkkkkkkkkkjjjjjjjkkkkkkkkkkkkkkkkkkkkkkkkkkkkkkkkkkkkkkkkkkkkkkkkkkkkkkkkkkkkk",
"kkkkkkkkkkkkkkkkkkkkkkkkkkkkkkkkkkkkkkkkkkkkkkkkkkkkkkkkkkkkjjjjjjjkkkkkkkkkkkkkkkkkkkkkkkkkkkkkkkkkkkkkkkkkkkkkkkkkkkkkkkkkkkkk",
"kkkkkkkkkkkkkkkkkkkkkkkkkkkkkkkkkkkkkkkkkkkkkkkkkkkkkjjjjjjjjjjjjjjjjjjjjjjkkkkkkkkkkkkkkkkkkkkkkkkkkkkkkkkkkkkkkkkkkkkkkkkkkkkk",
"kkkkkkkkkkkkkkkkkkkkkkkkkkkkkkkkkkkkkkkkkkkkkkkkkkkkkjjjjjjjjjjjjjjjjjjjjjjkkkkkkkkkkkkkkkkkkkkkkkkkkkkkkkkkkkkkkkkkkkkkkkkkkkkk",
"kkkkkkkkkkkkkkkkkkkkkkkkkkkkkkkkkkkkkkkkkkkkkkkkkkkkkjjjjjjjjjjjjjjjjjjjjjjkkkkkkkkkkkkkkkkkkkkkkkkkkkkkkkkkkkkkkkkkkkkkkkkkkkkk",
"kkkkkkkkkkkkkkkkkkkkkkkkkkkkkkkkkkkkkkkkkkkkkkkkkkkkkjjjjjjjjjjjjjjjjjjjjjjkkkkkkkkkkkkkkkkkkkkkkkkkkkkkkkkkkkkkkkkkkkkkkkkkkkkk",
"kkkkkkkkkkkkkkkkkkkkkkkkkkkkkkkkkkkkkkkkkkkkkkkkkkkkkjjjjjjjjjjjjjjjjjjjjjjkkkkkkkkkkkkkkkkkkkkkkkkkkkkkkkkkkkkkkkkkkkkkkkkkkkkk",
"kkkkkkkkkkkkkkkkkkkkkkkkkkkkkkkkkkkkkkkkkkkkkkkkkkkkkjjjjjjjjjjjjjjjjjjjjjjkkkkkkkkkkkkkkkkkkkkkkkkkkkkkkkkkkkkkkkkkkkkkkkkkkkkk",
"kkkkkkkkkkkkkkkkkkkkkkkkkkkkkkkkkkkkkkkkkkkkkkkkkkkkkjjjjjjjjjjjjjjjjjjjjjjkkkkkkkkkkkkkkkkkkkkkkkkkkkkkkkkkkkkkkkkkkkkkkkkkkkkk",
"kkkkkkkkkkkkkkkkkkkkkkkkkkkkkkkkkkkkkkkkkkkkkkkkkkkkkjjjjjji&&&&***0jjjjjjjkkkkkkkkkkkkkkkkkkkkkkkkkkkkkkkkkkkkkkkkkkkkkkkkkkkkk",
"kkkkkkkkkkkkkkkkkkkkkkkkkkkkkkkkkkkkkkkkkkkkkkkkkkkkkjjjjjjt       6jjjjjjjkkkkkkkkkkkkkkkkkkkkkkkkkkkkkkkkkkkkkkkkkkkkkkkkkkkkk",
"kkkkkkkkkkkkkkkkkkkkkkkkkkkkkkkkkkkkkkkkkkkkkkkkkkkkkjjjjjjt       4jjjjjjjkkkkkkkkkkkkkkkkkkkkkkkkkkkkkkkkkkkkkkkkkkkkkkkkkkkkk",
"kkkkkkkkkkkkkkkkkkkkkkkkkkkkkkkkkkkkkkkkkkkkkkkkkkkkkjjjjjjt       4jjjjjjjkkkkkkkkkkkkkkkkkkkkkkkkkkkkkkkkkkkkkkkkkkkkkkkkkkkkk",
"kkkkkkkkkkkkkkkkkkkkkkkkkkkkkkkkkkkkkkkkkkkkkkkkkkkkkjjjjjjt       4jjjjjjjkkkkkkkkkkkkkkkkkkkkkkkkkkkkkkkkkkkkkkkkkkkkkkkkkkkkk",
"kkkkkkkkkkkkkkkkkkkkkkkkkkkkkkkkkkkkkkkkkkkkkkkkkkkkkjjjjjjt       4jjjjjjjkkkkkkkkkkkkkkkkkkkkkkkkkkkkkkkkkkkkkkkkkkkkkkkkkkkkk",
"kkkkkkkkkkkkkkkkkkkkkkkkkkkkkkkkkkkkkkkkkkkkkkkkkkkkkjjjjjjt       4jjjjjjjkkkkkkkkkkkkkkkkkkkkkkkkkkkkkkkkkkkkkkkkkkkkkkkkkkkkk",
"kkkkkkkkkkkkkkkkkkkkkkkkkkkkkkkkkkkkkkkkkkkkkkkkkkkkkjjjjjjt       4jjjjjjjkkkkkkkkkkkkkkkkkkkkkkkkkkkkkkkkkkkkkkkkkkkkkkkkkkkkk",
"kkkkkkkkkkkkkkkkkkkkkkkkkkkkkkkkkkkkkkkkkkkkkkkkkkkkkjjjjjhr       4jjjjjjjkkkkkkkkkkkkkkkkkkkkkkkkkkkkkkkkkkkkkkkkkkkkkkkkkkkkk",
"kkkkkkkkkkkjjjjjjjkkkkkkkkkkkkkkkkkkkkkkkkkkkkkkkkkkkjjjjjjt       4jjjjjjjkkkkkkkkkkkkkkkkkkkkkkkkkkkkkkkkkkjjjjjjjjkkkkkkkkkkk",
"kkkkkkkkkkkjjjjjjjkkkkkkkkkkkkkkkkkkkkkkkkkkkkkkkkkkkjjjjjjr       3jjjjjjjkkkkkkkkkkkkkkkkkkkkkkkkkkkkkkkkkkjjjjjjjjkkkkkkkkkkk",
"kkkkkkkkkkkjjjjjjjkkkkkkkkkkkkkkkkkkkkkkkkkkkkkkkkkkkjjjjjjr       3jjjjjjjkkkkkkkkkkkkkkkkkkkkkkkkkkkkkkkkkkjjjjjjjjkkkkkkkkkkk",
"kkkkkkkkkkkjjjjjjjkkkkkkkkkkkkkkkkkkkkkkkkkkkkkkkkkkkjjjjjjr       4jjjjjjjkkkkkkkkkkkkkkkkkkkkkkkkkkkkkkkkkkjjjjjjjjkkkkkkkkkkk",
"kkkkkkkkkkkjjjjjjjkkkkkkkkkkkkkkkkkkkkkkkkkkkkkkkkkkkjjjjjjr       3jjjjjjjkkkkkkkkkkkkkkkkkkkkkkkkkkkkkkkkkkjjjjjjjjkkkkkkkkkkk",
"kkkkkkkkkkkjjjjjjjkkkkkkkkkkkkkkkkkkkkkkkkkkkkkkkkkkkjjjjjjr       3jjjjjjjkkkkkkkkkkkkkkkkkkkkkkkkkkkkkkkkkkjjjjjjjkkkkkkkkkkkk",
"kkkkkkkkkkkjjjjjjjkkkkkkkkkkkkkkkkkkkkkkkkkkkkkkkkkkkjjjjjjr       3jjjjjjjkkkkkkkkkkkkkkkkkkkkkkkkkkkkkkkkkkjjjjjjjkkkkkkkkkkkk",
"kkkkkkkkkkkjjjjjjjjjjjjjjjjjjjjjkkkkkkkkkkkkkkkkkkkkkjjjjjjr       3jjjjjjjkkkkkkkkkkkkkkkkkkkkjjjjjjjjjjjjjjjjjjjjjkkkkkkkkkkkk",
"kkkkkkkkkkkjjjjjjjjjjjjjjjjjjjjjkkkkkkkkkkkkkkkkkkkkkjjjjjjr       2jjjjjjjkkkkkkkkkkkkkkkkkkkkjjjjjjjjjjjjjjjjjjjjjkkkkkkkkkkkk",
"kkkkkkkkkkkjjjjjjjjjjjjjjjjjjjjjkkkkkkkkkkkkkkkkkkkkkjjjjjjw       3jjjjjjjkkkkkkkkkkkkkkkkkkkkjjjjjjjjjjjjjjjjjjjjjkkkkkkkkkkkk",
"kkkkkkkkkkkjjjjjjjjjjjjjjjjjjjjjkkkkkkkkkkkkkkkkkkkkkjjjjjjw       2jjjjjjjkkkkkkkkkkkkkkkkkkkkjjjjjjjjjjjjjjjjjjjjjkkkkkkkkkkkk",
"kkkkkkkkkkkjjjjjjjjjjhjjjjjjjjjhkkkkkkkkkkkkkkkkkkkkkjjjjjjw       2jjjjjjjkkkkkkkkkkkkkkkkkkkkjjjjjjjjjjjjjjjjjjjjjkkkkkkkkkkkk",
"kkkkkkkkkkkjjjjjjjjjjjjjjjjjjjjjkkkkkkkkkkkkkkkkkkkkkjjjjjhr       2jjjjjjjkkkkkkkkkkkkkkkkkkkkjjjjjjjjjjjjjhjjjjjjjkkkkkkkkkkkk",
"kkkkkkkkkkkjjjjjjjjjjjjjjjjjjjjjkkkkkkkkkkkkkkkkkkkkkjjjjjjq       2hjjjjhjkkkkkkkkkkkkkkkkkkkkjjjjjhjjjjjjjjjhjjjjjkkkkkkkkkkkk",
"kkkkkkkkkkkjjjjjjj9;;;---5jjjjjjjjjjjkkkkkkkkkkkkkkkkjjjjjjr       2jjjjjjjkkkkkkkkkkkkkhjjjjjjjjjjjhf3321,,,hjjjjjjkkkkkkkkkkkk",
"kkkkkkkkkkkjjjjjjj,      =jjjjjjjjjjjjjjkkkkkkkkkkkkkjjjjjjq       1jjjjjjjkkkkkkkkkkkkkjjjjjjjjjjjjja       jjjjjjjkkkkkkkkkkkk",
"kkkkkkkkkkkjjjjjjj<      =hjjjjjjjjjjjjjkkkkkkkkkkkkkjjjjjjq       2jjjjjjjkkkkkkkkkkkkkjjjjjjjjjjjjjp       jjjjjjjkkkkkkkkkkkk",
"kkkkkkkkkkkjjjjjjj,      *jjjjjjjjjjjjjjkkkkkkkkkkkkkjjjjjjw       1jjjjjhjkkkkkkkkkkkkkjjjjjjjjjjjjji       gjjjjjjkkkkkkkkkkkk",
"kkkkkkkkkkkjjjjjjj<      &jjjjjjjjjjjjjjkkkkkkkkkkkkkjjjjjjq       1jjjjjjjkkkkkkkkkkkkkjjjjjjjjjjjjji       gjjjjjjkkkkkkkkkkkk",
"kkkkkkkkkkkjjjjjjj<      &jjjjjjjjjjjjjjkkkkkkkkkkkkkjjjjjjq       1jjjjjjjkkkkkkkkkkkkkjjjjjjjjjjjjju       fjjjjjjkkkkkkkkkkkk",
"kkkkkkkkkkkjjjjjjj<      &jjjjjjjjjjjjjjkkkkkkkkkkkkkjjjjjjq       1jjjjjjjkkkkkkkkkkkkkjjjjjjjjjjjjhu       fjjjjjjkkkkkkkkkkkk",
"kkkkkkkkkkkjjjjjjj1      .=-:>,,rjjjjjjjkkkkkkkkkkkkkjjjjjjq       1jjjjjjjkkkkkkkkkkkkjjjjjjjj443333>       fjjjjjjkkkkkkkkkkkk",
"kkkkkkkkkkkjjjjjjj1             2jjjjjjjjjjjjjjkkkkkkjjjjjhq       1jjjjjjjkkkkkkjjjjjjjjjjjjjj              fjjjjjjkkkkkkkkkkkk",
"kkkkkkkkkkkjjjjjjj1             1jjjjjjjjjjjjjjkkkkkkjjjjjjq       1jjjjjjjkkkkkkjjjjjjjjjjjjjj              dhjjjjjkkkkkkkkkkkk",
"kkkkkkkkkkkjjjjjjj1             3jjjjjjjjjjjjjjkkkkkkjjjjjjq       1hjjjjjjkkkkkkjjjjjjjjjjjjjj              djjjjjjkkkkkkkkkkkk",
"kkkkkkkkkkkjjjjjjj1             1jjjjjjjjjjjjjjkkkkkkjjjjjjq       1jhjjjjjkkkkkjjjjjjjjjjjjjjj              sjjjjjjkkkkkkkkkkkk",
"kkkkkkkkkkkjjjjjjj1             1jjjjjjjjjjjjjjkkkkkkjjjjjj0       1jjjjjjjkkkkkjjjjjjjjjjhjjjj              sjjjjjjkkkkkkkkkkkk",
"kkkkkkkkkkkjjjjjjh1             1jjjjjjjjjjjjjjkkkkkkjjjjjjq       ,jjjjjjjkkkkkjjjjjjjjjjjjjjj              sjjjjjjkkkkkkkkkkkk",
"kkkkkkkkkkkjjjjjjj2o.           <ssssssdjjjjjjjkkkkkkjjjjjjq       1jjjjjjjkkkkkjjjjjjjjjjjhjjj            . sjjjjjjkkkkkkkkkkkk",
"kkkkkkkkkkkkkkkkkkhhjjjjgy             &jjjjjjjkkkkkkjjjjjjq       ,jjjjjhjkkkkkjjjjjjj0o..oXXX      $ggjjjjgkkkkkkkkkkkkkkkkkkk",
"kkkkkkkkkkkkkkkkkkjjjjjjju             &jjjjjjjkkkkkkjjjjjj0       ,jjjjjjjkkkkkjjjjjjj9             #jjjjjjjkkkkkkkkkkkkkkkkkkk",
"kkkkkkkkkkkkkkkkkkjjjjjjjt             %jjjjjjjkkkkkkjjjjjj0       ,jjjjjjjkkkkkjjjjjjj0             #jjjjjjjkkkkkkkkkkkkkkkkkkk",
"kkkkkkkkkkkkkkkkkkjjjjjhje             %jjjjjjjkkkkkkjjjjjj0       ,jjjjjjjkkkkkjjjjjjj0             @jjjjjjjkkkkkkkkkkkkkkkkkkk",
"kkkkkkkkkkkkkkkkkkjjjjjjjw             #jjjjjjjkkkkkkjjjjjj0       ,jjjjjjjkkkkkjjjjjjj9             @jjjjjjjkkkkkkkkkkkkkkkkkkk",
"kkkkkkkkkkkkkkkkkkjjjjjjjq             @jjjjjjjkkkkkkjjjjjj0       ,jjjjjjjkkkkkjjjjjjj9             Ojjjjjjjkkkkkkkkkkkkkkkkkkk",
"kkkkkkkkkkkkkkkkkkjjjjjjj0             +jjjjjjjkkkkkkjjjjjj0       ,jjjjjjjkkkkkjjjjjjj9             Ohjjjjjjkkkkkkkkkkkkkkkkkkk",
"kkkkkkkkkkkkkkkkkkjjjjjjjsqqqq0q&       XooooO#jjjjjjjjjjjj9       ,jjjjjjjjjjjj2$$$$$$O       0qrrtuijjjjjjjkkkkkkkkkkkkkkkkkkk",
"kkkkkkkkkkkkkkkkkkjjjjjjjjjjhjjj>             Xjjjjjjjjjjjj9       >jjjjjjjjjjjj,              jjhjjjjjjjjjjjkkkkkkkkkkkkkkkkkkk",
"kkkkkkkkkkkkkkkkkkjjjjjhjjjhhjjj>             Xjjjjjjjjjjjj0       ,jjjjjjjjjjjj,              jjjjjjjjjjjjjjkkkkkkkkkkkkkkkkkkk",
"kkkkkkkkkkkkkkkkkkjjjjjjjjjjjjjj,             Xjjjjjjjjjjjj9       :jjjjjjjjjjjj1              jjjjjjjjjjjjjjkkkkkkkkkkkkkkkkkkk",
"kkkkkkkkkkkkkkkkkkjjjjjjjjjjjjjj>             Xjjjjjjjjjjjj9       >jjjjjjjjjjjj,              jjjjjjjjjjjjjjkkkkkkkkkkkkkkkkkkk",
"kkkkkkkkkkkkkkkkkkjjjjjjjjjjjjjj>             Xjjjjjjjjjjjj8       >jjjjjjjjjjjj,              jjjjjjjjjjjjjjkkkkkkkkkkkkkkkkkkk",
"kkkkkkkkkkkkkkkkkkjjjjjjjjjjjjjj>             .jjjjjjjjjjjj9       >jjjjjjjjjjjj,              jhjjjjjjjjjjjjkkkkkkkkkkkkkkkkkkk",
"kkkkkkkkkkkkkkkkkkkkkjjjjjjjjjjjattrrrrw.      =====7jjjjjj9       >jjjjjjd77788&      =9888777jjjhjjjkkkkkkkkkkkkkkkkkkkkkkkkkk",
"kkkkkkkkkkkkkkkkkkkkkkkkkjjjjjjjjjjjjjjj.           :jjjjjj9       >jjjjjju            1jjjjjjjjjjjjjjkkkkkkkkkkkkkkkkkkkkkkkkkk",
"kkkkkkkkkkkkkkkkkkkkkkkkkjjjjjjjjjjjjjjj.           ;jjjjjj8       >jjjhjju            1jjjjjjjjjjjjjjkkkkkkkkkkkkkkkkkkkkkkkkkk",
"kkkkkkkkkkkkkkkkkkkkkkkkkjjjjjjjjjjjjjjj            =jjjjjj9       :jjjjjju            2jjjjjjjjjjjjjjkkkkkkkkkkkkkkkkkkkkkkkkkk",
"kkkkkkkkkkkkkkkkkkkkkkkkkjjjjjjjjjjjjjjg            =jjjjjj8       :jjjjjju            2jjjjjjjjjjjjjjkkkkkkkkkkkkkkkkkkkkkkkkkk",
"kkkkkkkkkkkkkkkkkkkkkkkkkjjjjjjjjjjjjjjg            *jjjjjj8       :jjjjjju            2jjjjjjjjjjjjjjkkkkkkkkkkkkkkkkkkkkkkkkkk",
"kkkkkkkkkkkkkkkkkkkkkkkkkjjjjjjjjjjjjjjf            %jjjjjj8       :hhjjjji            3jjjjjjjjjjjjjjkkkkkkkkkkkkkkkkkkkkkkkkkk",
"kkkkjjjjjjjjjjjjjjjjhjjjjjjjjjjjjjjjjjjgqqq0888#    X--;>;>%       o==*===&     ;354666ujjjjjjjjjjjjjjjjjjjjjjjjjjjjjjjjjjjkkkkk",
"kkkkjjjjjjjjjjjjjjjjjjjjjjjjjjjjjjjjjjjjjjjjjjj=                                rjhjjjjjjjjjjjjjjjjjjjjjjjjjjjjhjjjjjjjjjjjjkkkk",
"kkkkjjjjjjjjjjjjjjjjjjjjjjjjjjjjjjjjjjjjjjjjjjj=                                tjjjjjjjjjjjjjjjhjjjjjjjjjjjjjjjjjjjjjjjjjjjkkkk",
"kkkkjjjjjjjjjjjjjjjjjjjjjjjjjjjjjjjjjjjjjjjjjjj=                                tjjjjjjjjjjjjjjjjjjjjjjjjjjjjjjjjjjjjjjjjjjjkkkk",
"kkkkjjjjjjjjjjjjjjjjjjjjjjjjjjjjjjjjjjjjjjjjjjj*                                tjjjjjjjjjjjjjjjjjjjjjjjjjjjjjjjjjjjjjjjjjjjkkkk",
"kkkkjjjjjjjjjjjjjjjjjjjjjjhjjjjjjjjjjjjjjjjjjjj*                                ujjjjjjjjjjjjjjjjjjjjjjhjjjjjjjjjjjjjjjjjjjjkkkk",
"kkkkjjjjjjjjjjjjjjjjjjjjjjhjjjhjjjjjjjjjjjjjjjj&                                ijjjjjjjjjjhjhjjjhjjjjjhjjjjjjjjjjjjjjjjjjjjkkkk",
"kkkkjjjjjjjjjjjjjj0---=-=--===-=========jjjjjjjtwqwqqqq0009,       $122335667789fjjjjjhr===---;;;>>>>,,,,,,11sjjjjjjjjjkkkkkkkkk",
"kkkkkkkkkkkjjjjjjj1                     jjjjjjjjjjjjjjjjjjj0       1jjjjjjjjjjjjjjjhjjh7                     ujhjjjjjkkkkkkkkkkk",
"kkkkkkkkkkkjjjjjjj1                     jjjjjjjjjjjjjjjjjjj0       1jjjjjjjjjjjjhjjjjjh8                     ujjjjjjjkkkkkkkkkkk",
"kkkkkkkkkkkjjjjjjj<                     jjjjjjjjjjjjjjjjjjj0       1jjjjjjjjjjjjjjjjjjj8                     ujjjjjjjkkkkkkkkkkk",
"kkkkkkkkkkkjjjjjjj,                     jjjjjjjjjjjjjjjjjhj0       1jjjjjjjjjjjjjjjjjjj8                     yjjjjjjjkkkkkkkkkkk",
"kkkkkkkkkkkjjjjjjj,                     gjjjjjjjjjjjjjjjjjjq       1jjjjjjjjjjjjjjjjjjj8                     ujjjjjjjkkkkkkkkkkk",
"kkkkkkkkkkkjjjjjjj,                     gjjjjjjjjjjjjjjjjjjq       ,jjjjjjjjhjjjjjjjjjj9                     tjjjjjjjkkkkkkkkkkk",
"kkkkkkkkkkkjjjjjjj6-;;;;>>,,<<<1$       678888888999tjjjjjjq       ,jjjjjjd===---;;;>>>&       #$$%$%%%$%%&&%ujjjjjjkkkkkkkkkkkk",
"kkkkkkkkkkkkkkkkkkjjjjjjjjjjjjjj1                   =jjjjjjq       <jjjjjja                    gjjjjjhjjjjjjjkkkkkkkkkkkkkkkkkkk",
"kkkkkkkkkkkkkkkkkkjjjjjjjjjjjjjj1                   *jjjjjjq       ,jjjjjjp                    gjjjjjjjjjjjjjkkkkkkkkkkkkkkkkkkk",
"kkkkkkkkkkkkkkkkkkjjjjjjjjjjjjjj1                   *jjjjjjq       ,jjjjjji                    gjjjjjjjjjjjjjkkkkkkkkkkkkkkkkkkk",
"kkkkkkkkkkkkkkkkkkjjjjjjjjjjjjjj1                   &jjjjjjw       ,jjjjjju                    fjjjjjjhjjjjjjkkkkkkkkkkkkkkkkkkk",
"kkkkkkkkkkkkkkkkkkjjjjjjjjjjjjjj1                   &hjjjjjw       ,jjjjjju                    ghjjjjjjjjjjjjkkkkkkkkkkkkkkkkkkk",
"kkkkkkkkkkkkkkkkkkjjjjjjjjjjjjjj1                   &jjjjjjw       ,jjjjjju                    fjjjjjjjjjjjjjkkkkkkkkkkkkkkkkkkk",
"kkkkkkkkkkkkkkkkkkjjjjjjjjjjjjjj7###@@@+OOOOoOoooooX*jjjjjjr       ,jjjjjjuoooooooooooooooooooofjjjjjjjjjjjjjkkkkkkkkkkkkkkkkkkk",
"kkkkkkkkkkkkkkkkkkkkkkkkkkjjjjjjjjhjjjjjjjjjjjjjjjjjjjjjjjjr       ,jjjjjjjjjjjjjjjjjjjjjjjhjjjjjjjjjjkkkkkkkkkkkkkkkkkkkkkkkkkk",
"kkkkkkkkkkkkkkkkkkkkkkkkkkjjjjjjjjjjjjjjjjjjjjjjjjjjjhjjjjjr       ,jjjjjjjjjjjjjjjjjjjjjjjjjjjjjjjjjjkkkkkkkkkkkkkkkkkkkkkkkkkk",
"kkkkkkkkkkkkkkkkkkkkkkkkkkjjjjjjjjjjjjjjjjjjjjjhjjjjjjjjjjjr       ,jjjjjjjjjjjjjjjjjjjjjjjjjjjjjjjjjjkkkkkkkkkkkkkkkkkkkkkkkkkk",
"kkkkkkkkkkkkkkkkkkkkkkkkkkjjjjjjjjjjjjjjjjjjjjjjjjjjjjjjjjjt       >jjjjjjjjjjjhjjjjjjjjjjjjjjjjjjjjjjkkkkkkkkkkkkkkkkkkkkkkkkkk",
"kkkkkkkkkkkkkkkkkkkkkkkkkkjjjjjjjjjjjjjjjjjjjjjjjjjjjjjjjjjt       >jjjjjjhjjjjjjjjjjjjjjjjjjjjjjjjjjjkkkkkkkkkkkkkkkkkkkkkkkkkk",
"kkkkkkkkkkkkkkkkkkkkkkkkkkjjjjjjjjjjjjjjjjjjjjjjjjjjjjjjjjjt       >jjjjjjjjjjjjjjjjjjjhjjjjjjjjjjjjjjkkkkkkkkkkkkkkkkkkkkkkkkkk",
"kkkkkkkkkkkkkkkkkkkkkkkkkkjjjjjjjjjjjjjjjjjjjjjjjjjjjjjjjjjt       >jjjjjjjjjjjjjjjjjjjjjjjjjjjjjjjjjjkkkkkkkkkkkkkkkkkkkkkkkkkk",
"kkkkkkkkkkkkkkkkkkkkkkkkkkkkkkkkkkkkkkkkkkkkkkkkkkkkkkkkkkkkkkkkkkkkkkkkkkkkkkkkkkkkkkkkkkkkkkkkkkkkkkkkkkkkkkkkkkkkkkkkkkkkkkkk",
"kkkkkkkkkkkkkkkkkkkkkkkkkkkkkkkkkkkkkkkkkkkkkkkkkkkkkkkkkkkkkkkkkkkkkkkkkkkkkkkkkkkkkkkkkkkkkkkkkkkkkkkkkkkkkkkkkkkkkkkkkkkkkkkk",
"kkkkkkkkkkkkkkkkkkkkkkkkkkkkkkkkkkkkkkkkkkkkkkkkkkkkkkkkkkkkkkkkkkkkkkkkkkkkkkkkkkkkkkkkkkkkkkkkkkkkkkkkkkkkkkkkkkkkkkkkkkkkkkkk",
"kkkkkkkkkkkkkkkkkkkkkkkkkkkkkkkkkkkkkkkkkkkkkkkkkkkkkkkkkkkkkkkkkkkkkkkkkkkkkkkkkkkkkkkkkkkkkkkkkkkkkkkkkkkkkkkkkkkkkkkkkkkkkkkk",
"kkkkkkkkkkkkkkkkkkkkkkkkkkkkkkkkkkkkkkkkkkkkkkkkkkkkkkkkkkkkkkkkkkkkkkkkkkkkkkkkkkkkkkkkkkkkkkkkkkkkkkkkkkkkkkkkkkkkkkkkkkkkkkkk",
"kkkkkkkkkkkkkkkkkkkkkkkkkkkkkkkkkkkkkkkkkkkkkkkkkkkkkkkkkkkkkkkkkkkkkkkkkkkkkkkkkkkkkkkkkkkkkkkkkkkkkkkkkkkkkkkkkkkkkkkkkkkkkkkk",
"kkkkkkkkkkkkkkkkkkkkkkkkkkkkkkkkkkkkkkkkkkkkkkkkkkkkkkkkkkkkkkkkkkkkkkkkkkkkkkkkkkkkkkkkkkkkkkkkkkkkkkkkkkkkkkkkkkkkkkkkkkkkkkkk",
"kkkkkkkkkkkkkkkkkkkkkkkkkkkkkkkkkkkkkkkkkkkkkkkkkkkkkkkkkkkkjjjjjjjkkkkkkkkkkkkkkkkkkkkkkkkkkkkkkkkkkkkkkkkkkkkkkkkkkkkkkkkkkkkk",
"kkkkkkkkkkkkkkkkkkkkkkkkkkkkkkkkkkkkkkkkkkkkkkkkkkkkkkkkkkkkjjjjjjjkkkkkkkkkkkkkkkkkkkkkkkkkkkkkkkkkkkkkkkkkkkkkkkkkkkkkkkkkkkkk",
"kkkkkkkkkkkkkkkkkkkkkkkkkkkkkkkkkkkkkkkkkkkkkkkkkkkkkkkkkkkkjjjjjjjkkkkkkkkkkkkkkkkkkkkkkkkkkkkkkkkkkkkkkkkkkkkkkkkkkkkkkkkkkkkk",
"kkkkkkkkkkkkkkkkkkkkkkkkkkkkkkkkkkkkkkkkkkkkkkkkkkkkkkkkkkkkjjjjjjjkkkkkkkkkkkkkkkkkkkkkkkkkkkkkkkkkkkkkkkkkkkkkkkkkkkkkkkkkkkkk",
"kkkkkkkkkkkkkkkkkkkkkkkkkkkkkkkkkkkkkkkkkkkkkkkkkkkkkkkkkkkkjjjjjjjkkkkkkkkkkkkkkkkkkkkkkkkkkkkkkkkkkkkkkkkkkkkkkkkkkkkkkkkkkkkk",
"kkkkkkkkkkkkkkkkkkkkkkkkkkkkkkkkkkkkkkkkkkkkkkkkkkkkkkkkkkkkjjjjjjjkkkkkkkkkkkkkkkkkkkkkkkkkkkkkkkkkkkkkkkkkkkkkkkkkkkkkkkkkkkkk",
"kkkkkkkkkkkkkkkkkkkkkkkkkkkkkkkkkkkkkkkkkkkkkkkkkkkkkkkkkkkkjjjjjjjkkkkkkkkkkkkkkkkkkkkkkkkkkkkkkkkkkkkkkkkkkkkkkkkkkkkkkkkkkkkk",
"kkkkkkkkkkkkkkkkkkkkkkkkkkkkkkkkkkkkkkkkkkkkkkkkkkkkkkkkkkkkjjjjjjjkkkkkkkkkkkkkkkkkkkkkkkkkkkkkkkkkkkkkkkkkkkkkkkkkkkkkkkkkkkkk",
"kkkkkkkkkkkkkkkkkkkkkkkkkkkkkkkkkkkkkkkkkkkkkkkkkkkkkkkkkkkkjjjjjjjkkkkkkkkkkkkkkkkkkkkkkkkkkkkkkkkkkkkkkkkkkkkkkkkkkkkkkkkkkkkk",
"kkkkkkkkkkkkkkkkkkkkkkkkkkkkkkkkkkkkkkkkkkkkkkkkkkkkkkkkkkkkjjjjjjjkkkkkkkkkkkkkkkkkkkkkkkkkkkkkkkkkkkkkkkkkkkkkkkkkkkkkkkkkkkkk",
"kkkkkkkkkkkkkkkkkkkkkkkkkkkkkkkkkkkkkkkkkkkkkkkkkkkkkkkkkkkkjjjjjjjkkkkkkkkkkkkkkkkkkkkkkkkkkkkkkkkkkkkkkkkkkkkkkkkkkkkkkkkkkkkk",
"kkkkkkkkkkkkkkkkkkkkkkkkkkkkkkkkkkkkkkkkkkkkkkkkkkkkkkkkkkkkjjjjjjjkkkkkkkkkkkkkkkkkkkkkkkkkkkkkkkkkkkkkkkkkkkkkkkkkkkkkkkkkkkkk",
"kkkkkkkkkkkkkkkkkkkkkkkkkkkkkkkkkkkkkkkkkkkkkkkkkkkkkkkkkkkkjjjjjjjkkkkkkkkkkkkkkkkkkkkkkkkkkkkkkkkkkkkkkkkkkkkkkkkkkkkkkkkkkkkk",
"kkkkkkkkkkkkkkkkkkkkkkkkkkkkkkkkkkkkkkkkkkkkkkkkkkkkkkkkkkkkjjjjjjjkkkkkkkkkkkkkkkkkkkkkkkkkkkkkkkkkkkkkkkkkkkkkkkkkkkkkkkkkkkkk"
};
