/* XPM */
static char *result[] = {
/* columns rows colors chars-per-pixel */
"64 64 248 2 ",
"   c black",
".  c #000100",
"X  c #010201",
"o  c #000402",
"O  c #010503",
"+  c #020704",
"@  c #020804",
"#  c #020904",
"$  c #020905",
"%  c #020A05",
"&  c #020906",
"*  c #020A06",
"=  c #020B07",
"-  c #020C06",
";  c #020D07",
":  c #030E07",
">  c #020E08",
",  c #030F08",
"<  c #040F09",
"1  c #031009",
"2  c #041009",
"3  c #041109",
"4  c #041209",
"5  c #04120A",
"6  c #04140A",
"7  c #04140B",
"8  c #06190D",
"9  c #051A0E",
"0  c #061C0F",
"q  c #061D10",
"w  c #061F11",
"e  c #071F11",
"r  c #072011",
"t  c #072012",
"y  c #072112",
"u  c #072213",
"i  c #072313",
"p  c #072514",
"a  c #082212",
"s  c #082313",
"d  c #082414",
"f  c #082514",
"g  c #082615",
"h  c #082715",
"j  c #082716",
"k  c #092716",
"l  c #082815",
"z  c #092815",
"x  c #082816",
"c  c #092916",
"v  c #092917",
"b  c #082A17",
"n  c #092A17",
"m  c #092B17",
"M  c #092C17",
"N  c #092B18",
"B  c #092C18",
"V  c #092D18",
"C  c #092D19",
"Z  c #0A2D18",
"A  c #0A2D19",
"S  c #092E19",
"D  c #0A2E18",
"F  c #0A2E19",
"G  c #0A2E1A",
"H  c #0A2F1A",
"J  c #0A301A",
"K  c #0B301A",
"L  c #0A311A",
"P  c #0A321B",
"I  c #0B321B",
"U  c #0A331B",
"Y  c #0B331C",
"T  c #0B341C",
"R  c #0B351D",
"E  c #0B361D",
"W  c #0B371E",
"Q  c #0C371D",
"!  c #0C371E",
"~  c #0C381E",
"^  c #0C391F",
"/  c #0C3A20",
"(  c #0D3C20",
")  c #0C3C21",
"_  c #0D3C21",
"`  c #0D3D21",
"'  c #0D3D22",
"]  c #0D3F22",
"[  c #0D3F23",
"{  c #0D4023",
"}  c #0E4023",
"|  c #0E4124",
" . c #0E4324",
".. c #0E4325",
"X. c #0F4425",
"o. c #0E4526",
"O. c #0F4626",
"+. c #0E4727",
"@. c #0F4A29",
"#. c #104827",
"$. c #104C29",
"%. c #10502C",
"&. c #11502C",
"*. c #11522C",
"=. c #11522D",
"-. c #11532D",
";. c #11542D",
":. c #12542E",
">. c #12552E",
",. c #12572F",
"<. c #125A31",
"1. c #135B32",
"2. c #145B31",
"3. c #135C32",
"4. c #145E33",
"5. c #155F34",
"6. c #146235",
"7. c #156335",
"8. c #146336",
"9. c #156436",
"0. c #156537",
"q. c #166637",
"w. c #156738",
"e. c #156838",
"r. c #166838",
"t. c #166839",
"y. c #166A39",
"u. c #166B3A",
"i. c #176B3A",
"p. c #166B3B",
"a. c #166C3B",
"s. c #176E3C",
"d. c #176F3C",
"f. c #176F3D",
"g. c #186E3C",
"h. c #186F3D",
"j. c #1A7C43",
"k. c #1A7D43",
"l. c #1A7D44",
"z. c #1A7D45",
"x. c #1A7F44",
"c. c #1A7E45",
"v. c #1B7F45",
"b. c #1B8045",
"n. c #1B8247",
"m. c #1B8347",
"M. c #1C8146",
"N. c #1C8347",
"B. c #1B8348",
"V. c #1B8448",
"C. c #1C8549",
"Z. c #1C8648",
"A. c #1C8649",
"S. c #1C8749",
"D. c #1D8749",
"F. c #1C874A",
"G. c #1D8849",
"H. c #1C884A",
"J. c #1D8A4B",
"K. c #1D8C4C",
"L. c #1E8C4C",
"P. c #1E8D4C",
"I. c #1E8D4D",
"U. c #1E8F4D",
"Y. c #1E8E4E",
"T. c #1E904E",
"R. c #1E914E",
"E. c #1E914F",
"W. c #1F914F",
"Q. c #1E924F",
"!. c #1E9250",
"~. c #1F9350",
"^. c #1F9451",
"/. c #1F9551",
"(. c #209551",
"). c #209752",
"_. c #209852",
"`. c #209953",
"'. c #219C55",
"]. c #219D55",
"[. c #229F56",
"{. c #22A157",
"}. c #22A459",
"|. c #23A459",
" X c #23A65A",
".X c #23A75A",
"XX c #23A65B",
"oX c #23A75B",
"OX c #23A85B",
"+X c #23A85C",
"@X c #23A95C",
"#X c #23AB5C",
"$X c #23AB5D",
"%X c #24A95C",
"&X c #24AA5C",
"*X c #24AA5D",
"=X c #24AB5D",
"-X c #24AC5E",
";X c #25AC5E",
":X c #24AD5E",
">X c #24AD5F",
",X c #24AE5E",
"<X c #25AE5E",
"1X c #25AF5E",
"2X c #25AE5F",
"3X c #24AF5F",
"4X c #25AF5F",
"5X c #25B05F",
"6X c #25B060",
"7X c #25B160",
"8X c #25B161",
"9X c #25B261",
"0X c #25B361",
"qX c #26B260",
"wX c #26B261",
"eX c #26B361",
"rX c #25B362",
"tX c #26B362",
"yX c #26B462",
"uX c #26B562",
"iX c #26B563",
"pX c #26B663",
"aX c #26B763",
"sX c #26B764",
"dX c #27B864",
"fX c #27B964",
"gX c #27BB65",
"hX c #27BB66",
"jX c #28BE67",
"kX c #28BE68",
"lX c #28C068",
"zX c #28C069",
"xX c #29C269",
"cX c #29C66B",
"vX c #2AC66C",
"bX c #2ACA6E",
"nX c #2ACC6F",
"mX c #2CCE6F",
"MX c #2CCF71",
"NX c #2BD071",
"BX c #2BD171",
"VX c #2BD072",
"CX c #2BD172",
"ZX c #2CD071",
"AX c #2CD171",
"SX c #2CD072",
"DX c #2CD172",
"FX c None",
/* pixels */
"FXFXFXFXFXFXFXFXFXFXFXFXFXFXFXFXFXFXFXFXFXFXFXFXFXFXFXFXFXFXAXNXZXZXFXFXFXFXFXFXFXFXFXFXFXFXFXFXFXFXFXFXFXFXFXFXFXFXFXFXFXFXFXFX",
"FXFXFXFXFXFXFXFXFXFXFXFXFXFXFXFXFXFXFXFXFXFXFXFXFXFXFXFXFXFXZXZXZXZXFXFXFXFXFXFXFXFXFXFXFXFXFXFXFXFXFXFXFXFXFXFXFXFXFXFXFXFXFXFX",
"FXFXFXFXFXFXFXFXFXFXFXFXFXFXFXFXFXFXFXFXFXFXFXFXFXFXFXFXFXFXZXBXZXZXFXFXFXFXFXFXFXFXFXFXFXFXFXFXFXFXFXFXFXFXFXFXFXFXFXFXFXFXFXFX",
"FXFXFXFXFXFXFXFXFXFXFXFXFXFXFXFXFXFXFXFXFXFXFXFXFXFXFXFXFXFXNXZXNXZXFXFXFXFXFXFXFXFXFXFXFXFXFXFXFXFXFXFXFXFXFXFXFXFXFXFXFXFXFXFX",
"FXFXFXFXFXFXFXFXFXFXFXFXFXFXFXFXFXFXFXFXFXFXFXFXFXFXFXFXFXFXZXZXZXAXFXFXFXFXFXFXFXFXFXFXFXFXFXFXFXFXFXFXFXFXFXFXFXFXFXFXFXFXFXFX",
"FXFXFXFXFXFXFXFXFXFXFXFXFXFXFXFXFXFXFXFXFXFXFXFXFXFXFXFXFXFXZXZXZXZXFXFXFXFXFXFXFXFXFXFXFXFXFXFXFXFXFXFXFXFXFXFXFXFXFXFXFXFXFXFX",
"FXFXFXFXFXFXFXFXFXFXFXFXFXFXFXFXFXFXFXFXFXFXFXFXFXFXZXZXAXZXNXZXZXAXZXAXVXFXFXFXFXFXFXFXFXFXFXFXFXFXFXFXFXFXFXFXFXFXFXFXFXFXFXFX",
"FXFXFXFXFXFXFXFXFXFXFXFXFXFXFXFXFXFXFXFXFXFXFXFXFXFXSXZXAXVXNXZXZXZXZXSXAXFXFXFXFXFXFXFXFXFXFXFXFXFXFXFXFXFXFXFXFXFXFXFXFXFXFXFX",
"FXFXFXFXFXFXFXFXFXFXFXFXFXFXFXFXFXFXFXFXFXFXFXFXFXFXZXBXBXZXZXNXAXDXZXNXSXFXFXFXFXFXFXFXFXFXFXFXFXFXFXFXFXFXFXFXFXFXFXFXFXFXFXFX",
"FXFXFXFXFXFXFXFXFXFXFXFXFXFXFXFXFXFXFXFXFXFXFXFXFXFXZXZXZXvXn.n.m.).NXZXZXFXFXFXFXFXFXFXFXFXFXFXFXFXFXFXFXFXFXFXFXFXFXFXFXFXFXFX",
"FXFXFXFXFXFXFXFXFXFXFXFXFXFXFXFXFXFXFXFXFXFXFXFXFXFXZXZXNXiX      ! ZXNXNXFXFXFXFXFXFXFXFXFXFXFXFXFXFXFXFXFXFXFXFXFXFXFXFXFXFXFX",
"FXFXFXFXFXFXFXFXFXFXFXFXFXFXFXFXFXFXFXFXFXFXFXFXFXFXNXSXNXuX      Q NXZXAXFXFXFXFXFXFXFXFXFXFXFXFXFXFXFXFXFXFXFXFXFXFXFXFXFXFXFX",
"FXFXFXFXFXFXFXFXFXFXFXFXFXFXFXFXFXFXFXFXFXFXFXFXFXFXZXNXNXuX      R NXNXSXFXFXFXFXFXFXFXFXFXFXFXFXFXFXFXFXFXFXFXFXFXFXFXFXFXFXFX",
"FXFXFXFXFXFXFXFXFXFXFXFXFXFXFXFXFXFXFXFXFXFXFXFXFXFXZXSXNXyX      R ZXZXNXFXFXFXFXFXFXFXFXFXFXFXFXFXFXFXFXFXFXFXFXFXFXFXFXFXFXFX",
"FXFXFXFXFXZXZXZXZXFXFXFXFXFXFXFXFXFXFXFXFXFXFXFXFXFXAXZXNXrX      R SXZXNXFXFXFXFXFXFXFXFXFXFXFXFXFXFXFXFXFXFXZXNXSXFXFXFXFXFXFX",
"FXFXFXFXFXNXVXNXAXFXFXFXFXFXFXFXFXFXFXFXFXFXFXFXFXFXNXZXNX0X      T AXAXAXFXFXFXFXFXFXFXFXFXFXFXFXFXFXFXFXFXFXNXAXBXFXFXFXFXFXFX",
"FXFXFXFXFXBXZXSXZXFXFXFXFXFXFXFXFXFXFXFXFXFXFXFXFXFXNXAXNXwX      Y ZXAXZXFXFXFXFXFXFXFXFXFXFXFXFXFXFXFXFXFXFXSXAXZXFXFXFXFXFXFX",
"FXFXFXFXFXNXNXZXZXFXFXFXFXFXFXFXFXFXFXFXFXFXFXFXFXFXAXZXZXwX      P ZXNXNXFXFXFXFXFXFXFXFXFXFXFXFXFXFXFXFXFXAXNXNXNXFXFXFXFXFXFX",
"FXFXFXFXFXNXBXZXZXZXNXBXZXNXBXNXFXFXFXFXFXFXFXFXFXFXZXZXNX8X      I ZXNXAXFXFXFXFXFXFXFXFXFXFXNXZXDXZXZXZXSXZXZXZXBXFXFXFXFXFXFX",
"FXFXFXFXFXZXNXNXNXNXSXZXNXNXZXZXFXFXFXFXFXFXFXFXFXFXNXBXZX7X      L ZXZXZXFXFXFXFXFXFXFXFXFXFXZXAXNXZXZXSXAXNXZXZXNXFXFXFXFXFXFX",
"FXFXFXFXFXZXVXZXVXNXNXZXNXZXNXZXFXFXFXFXFXFXFXFXFXFXBXZXNX6X      K NXNXNXFXFXFXFXFXFXFXFXFXFXZXAXNXZXAXBXNXAXZXZXNXFXFXFXFXFXFX",
"FXFXFXFXFXNXNXZXZX+.i a ( NXZXNXNXNXZXNXFXFXFXFXFXFXNXVXZX5X      H AXZXNXFXFXFXFXFXFXFXNXBXDXAXAXZXcXI S m j.SXNXNXFXFXFXFXFXFX",
"FXFXFXFXFXZXZXSXZXm     0 NXAXZXNXSXNXDXFXFXFXFXFXFXBXZXZX4X      G ZXAXZXFXFXFXFXFXFXFXAXBXAXZXNXZXkX      0.NXZXZXFXFXFXFXFXFX",
"FXFXFXFXFXZXZXNXZXm     9 ZXNXNXNXZXZXZXFXFXFXFXFXFXZXZXBX1X      G AXNXZXFXFXFXFXFXFXFXZXAXNXZXZXZXgX      8.VXNXBXFXFXFXFXFXFX",
"FXFXFXFXFXZXNXAXBXB     , H.P.!.zXZXZXZXFXFXFXFXFXFXNXNXSX2X      F ZXBXNXFXFXFXFXFXFXFXNXZXNXpX'.].J.      6.ZXSXNXFXFXFXFXFXFX",
"FXFXFXFXFXZXAXZXZXB             `.ZXZXZXNXZXZXZXFXFXVXVXNX,X      V SXNXZXFXFXFXBXZXNXAXNXZXAXr.            5.NXZXNXFXFXFXFXFXFX",
"FXFXFXFXFXZXZXZXNXC             _.BXSXBXSXBXNXBXFXFXNXNXZX:X      B ZXZXNXFXFXFXZXVXNXZXAXZXNXt.            4.NXBXBXFXFXFXFXFXFX",
"FXFXFXFXFXAXZXZXNXZ             (.NXZXNXZXAXAXZXFXFXBXZXZX;X      m AXNXZXFXFXFXNXZXZXZXNXNXZXt.            2.ZXZXZXFXFXFXFXFXFX",
"FXFXFXFXFXFXFXFXFXl.a.r.<.      | 3.1.u.AXZXZXZXFXFXZXNXZX-X      m ZXAXAXFXFXFXBXBXZXjXg.d.h.~     & q.e.y.l.FXFXFXFXFXFXFXFXFX",
"FXFXFXFXFXFXFXFXFXNXZXZXsX            8 AXNXZXNXFXFXBXNXAX$X      n NXZXSXFXFXFXNXAXZX&X            5 ZXAXNXFXFXFXFXFXFXFXFXFXFX",
"FXFXFXFXFXFXFXFXFXZXZXSXqX            7 DXZXSXAXFXFXZXZXNX=X      n ZXAXNXFXFXFXZXZXZX&X            2 ZXNXZXFXFXFXFXFXFXFXFXFXFX",
"FXFXFXFXFXFXFXFXFXZXZXNX:X            < NXZXZXNXFXFXZXZXZX*X      c ZXZXZXFXFXFXZXZXNX@X            : ZXZXZXFXFXFXFXFXFXFXFXFXFX",
"FXFXFXFXFXFXFXFXFXBXAXAXbX3X-X*Xt     . + $ = d.ZXNXZXNXVX%X      x ZXNXNXNXNXZXW 6 7 1       >.3XiXhXVXNXNXFXFXFXFXFXFXFXFXFXFX",
"FXFXFXFXFXFXFXFXFXNXSXZXAXDXZXZXj             f.BXVXZXNXZX@X      k ZXNXZXNXNXZXm             t.ZXNXZXZXNXSXFXFXFXFXFXFXFXFXFXFX",
"FXFXFXFXFXFXFXFXFXZXNXZXZXNXZXZXl             s.NXAXZXAXBX+X      j ZXNXSXNXSXZXm             t.AXZXNXNXBXZXFXFXFXFXFXFXFXFXFXFX",
"FXFXFXFXFXFXFXFXFXAXZXZXZXZXAXNXq.$.@.#.X     o.A.S.fXZXNX+X      g ZXZXZXyX|. Xu     , } ] _ C.ZXNXZXBXSXNXFXFXFXFXFXFXFXFXFXFX",
"FXFXFXFXFXFXFXFXFXFXFXFXFXZXNXNXNXZXNXSXo           K.BXZXOX      f ZXBXAX*.          J SXZXZXZXZXNXZXFXFXFXFXFXFXFXFXFXFXFXFXFX",
"FXFXFXFXFXFXFXFXFXFXFXFXFXZXNXZXNXNXZXZX.           S.NXZXoX      f SXZXZX;.          L NXAXAXNXZXZXZXFXFXFXFXFXFXFXFXFXFXFXFXFX",
"FXFXFXFXFXFXFXFXFXFXFXFXFXSXZXNXCXZXAXnX            n.ZXSXXX      p ZXZXNX:.          Y ZXZXCXZXZXBXVXFXFXFXFXFXFXFXFXFXFXFXFXFX",
"FXFXNXAXVXNXZXBXZXZXDXNXZXNXZXZXZXZXVXNX<X#X.Xp.    7 a d w       O q q q -     Z.[.{.,XZXZXVXNXNXZXZXBXCXNXBXZXZXNXSXZXZXZXFXFX",
"FXFXZXZXNXZXNXNXAXAXNXZXNXNXAXAXZXZXSXZXNXNXZXD.                                yXZXZXZXZXZXZXNXNXZXNXZXZXAXAXAXNXAXVXNXZXNXFXFX",
"FXFXZXNXZXZXZXNXZXZXNXZXZXZXAXZXAXNXZXNXVXNXNXV.                                dXAXNXZXZXZXZXNXNXSXZXZXZXVXNXNXZXZXAXNXZXBXFXFX",
"FXFXZXNXZXZXNXZXAX`.H.H.G.H.F.S.S.S.A.A.NXBXZX].+.O.X... .R       * H U E ^ _ [ xXNXZXlXS.H.J.K.K.Y.T.W.!./.:XNXZXZXZXNXNXSXFXFX",
"FXFXFXFXFXNXNXZXNXS                     ZXZXZXZXNXZXNXZXZX*X      A AXZXZXZXSXNXZXNXNX}.                    =.ZXZXZXFXFXFXFXFXFX",
"FXFXFXFXFXBXZXNXNXM                     MXNXNXZXBXZXZXZXAX=X      B NXNXAXZXZXNXNXNXNXXX                    &.ZXNXSXFXFXFXFXFXFX",
"FXFXFXFXFXZXZXZXZXv                     mXNXBXNXBXNXNXSXNX-X      M NXCXNXZXNXNXZXZXZX+X                    %.AXNXNXFXFXFXFXFXFX",
"FXFXFXFXFXFXFXFXFXQ.L.I.U.E.~.^.y       / ` ' ] { } '.NXBX>X      N NXZXVXi.e t u s f r       ) k.z.c.x.v.b.R.FXFXFXFXFXFXFXFXFX",
"FXFXFXFXFXFXFXFXFXZXNXZXZXZXZXZXS                   B.ZXBX4X      n ZXZXZX,.                  9.NXZXNXVXNXNXCXFXFXFXFXFXFXFXFXFX",
"FXFXFXFXFXFXFXFXFXVXNXNXNXNXNXNXD                   M.BXVX7X      b ZXNXAX-.                  7.BXZXAXNXZXNXZXFXFXFXFXFXFXFXFXFX",
"FXFXFXFXFXFXFXFXFXBXAXVXDXSXNXAX` 4 3 , > ; - % # @ N.BXBX9X      c ZXNXAX>.& * * % * $ % % % w.ZXZXNXZXAXZXNXFXFXFXFXFXFXFXFXFX",
"FXFXFXFXFXFXFXFXFXFXFXFXFXZXZXZXZXNXAXZXSXAXZXZXZXZXNXNXZXeX      x ZXAXZXAXZXZXBXZXZXZXAXNXNXZXZXZXZXFXFXFXFXFXFXFXFXFXFXFXFXFX",
"FXFXFXFXFXFXFXFXFXFXFXFXFXZXBXNXNXNXSXZXAXZXZXZXNXNXZXZXZXtX      x ZXZXVXNXZXZXZXZXZXSXNXAXZXZXZXBXZXFXFXFXFXFXFXFXFXFXFXFXFXFX",
"FXFXFXFXFXFXFXFXFXFXFXFXFXAXZXNXSXNXAXZXZXAXZXAXZXZXNXNXNXuX      h ZXNXNXZXZXZXZXZXAXAXZXNXZXZXZXZXZXFXFXFXFXFXFXFXFXFXFXFXFXFX",
"FXFXFXFXFXFXFXFXFXFXFXFXFXFXFXFXFXFXFXFXFXFXZXZXZXNXNXDXZXaX      z ZXZXZXSXNXZXNXAXNXNXZXZXZXZXZXAXNXFXFXFXFXFXFXFXFXFXFXFXFXFX",
"FXFXFXFXFXFXFXFXFXFXFXFXFXFXFXFXFXFXFXFXFXFXFXFXFXFXFXFXFXFXFXFXFXFXFXFXFXFXFXFXFXFXFXFXFXFXFXFXFXFXFXFXFXFXFXFXFXFXFXFXFXFXFXFX",
"FXFXFXFXFXFXFXFXFXFXFXFXFXFXFXFXFXFXFXFXFXFXFXFXFXFXFXFXFXFXFXFXFXFXFXFXFXFXFXFXFXFXFXFXFXFXFXFXFXFXFXFXFXFXFXFXFXFXFXFXFXFXFXFX",
"FXFXFXFXFXFXFXFXFXFXFXFXFXFXFXFXFXFXFXFXFXFXFXFXFXFXFXFXFXFXFXFXFXFXFXFXFXFXFXFXFXFXFXFXFXFXFXFXFXFXFXFXFXFXFXFXFXFXFXFXFXFXFXFX",
"FXFXFXFXFXFXFXFXFXFXFXFXFXFXFXFXFXFXFXFXFXFXFXFXFXFXFXFXFXFXZXNXZXZXFXFXFXFXFXFXFXFXFXFXFXFXFXFXFXFXFXFXFXFXFXFXFXFXFXFXFXFXFXFX",
"FXFXFXFXFXFXFXFXFXFXFXFXFXFXFXFXFXFXFXFXFXFXFXFXFXFXFXFXFXFXZXNXNXNXFXFXFXFXFXFXFXFXFXFXFXFXFXFXFXFXFXFXFXFXFXFXFXFXFXFXFXFXFXFX",
"FXFXFXFXFXFXFXFXFXFXFXFXFXFXFXFXFXFXFXFXFXFXFXFXFXFXFXFXFXFXAXZXBXZXFXFXFXFXFXFXFXFXFXFXFXFXFXFXFXFXFXFXFXFXFXFXFXFXFXFXFXFXFXFX",
"FXFXFXFXFXFXFXFXFXFXFXFXFXFXFXFXFXFXFXFXFXFXFXFXFXFXFXFXFXFXZXAXNXZXFXFXFXFXFXFXFXFXFXFXFXFXFXFXFXFXFXFXFXFXFXFXFXFXFXFXFXFXFXFX",
"FXFXFXFXFXFXFXFXFXFXFXFXFXFXFXFXFXFXFXFXFXFXFXFXFXFXFXFXFXFXNXAXZXZXFXFXFXFXFXFXFXFXFXFXFXFXFXFXFXFXFXFXFXFXFXFXFXFXFXFXFXFXFXFX",
"FXFXFXFXFXFXFXFXFXFXFXFXFXFXFXFXFXFXFXFXFXFXFXFXFXFXFXFXFXFXNXZXAXZXFXFXFXFXFXFXFXFXFXFXFXFXFXFXFXFXFXFXFXFXFXFXFXFXFXFXFXFXFXFX",
"FXFXFXFXFXFXFXFXFXFXFXFXFXFXFXFXFXFXFXFXFXFXFXFXFXFXFXFXFXFXNXNXBXVXFXFXFXFXFXFXFXFXFXFXFXFXFXFXFXFXFXFXFXFXFXFXFXFXFXFXFXFXFXFX"
};
