/* XPM */
static char *result[] = {
/* columns rows colors chars-per-pixel */
"32 32 147 2 ",
"   c black",
".  c #000101",
"X  c #010401",
"o  c #010402",
"O  c #010502",
"+  c #010403",
"@  c #010503",
"#  c #020604",
"$  c #010905",
"%  c #020804",
"&  c #020905",
"*  c #020B06",
"=  c #030E08",
"-  c #030F08",
";  c #031109",
":  c #04120A",
">  c #04130A",
",  c #04130B",
"<  c #04140A",
"1  c #05140B",
"2  c #04150B",
"3  c #05160B",
"4  c #04160C",
"5  c #05160C",
"6  c #05170C",
"7  c #04180D",
"8  c #05180D",
"9  c #05190D",
"0  c #05190E",
"q  c #051A0E",
"w  c #061A0E",
"e  c #061B0F",
"r  c #061E10",
"t  c #061F10",
"y  c #071F10",
"u  c #071F11",
"i  c #072313",
"p  c #082514",
"a  c #082615",
"s  c #082815",
"d  c #082816",
"f  c #092A17",
"g  c #092D18",
"h  c #0A2F1A",
"j  c #0B351D",
"k  c #0B371E",
"l  c #0C371E",
"z  c #0C391F",
"x  c #0E4324",
"c  c #0E4325",
"v  c #0F4325",
"b  c #0E4425",
"n  c #0F4525",
"m  c #0E4526",
"M  c #0F4726",
"N  c #0F4827",
"B  c #0F4927",
"V  c #0F4928",
"C  c #0F4B28",
"Z  c #114E2B",
"A  c #11542D",
"S  c #12552E",
"D  c #12562F",
"F  c #12572F",
"G  c #145E33",
"H  c #146034",
"J  c #146235",
"K  c #176E3C",
"L  c #18703C",
"P  c #197640",
"I  c #197741",
"U  c #197942",
"Y  c #1B7C43",
"T  c #1A7D44",
"R  c #1B7E44",
"E  c #1B7F45",
"W  c #1B8146",
"Q  c #1C8347",
"!  c #1C8749",
"~  c #1D8A4B",
"^  c #1D8B4B",
"/  c #1E914E",
"(  c #1F914F",
")  c #1E9350",
"_  c #1F9752",
"`  c #1F9953",
"'  c #209852",
"]  c #209B53",
"[  c #209A54",
"{  c #209C55",
"}  c #219C55",
"|  c #219D55",
" . c #23A65A",
".. c #23A75B",
"X. c #24A85B",
"o. c #23A85C",
"O. c #23A95C",
"+. c #24A95C",
"@. c #24AA5D",
"#. c #24AB5D",
"$. c #24AC5D",
"%. c #25AD5E",
"&. c #24AE5E",
"*. c #24AE5F",
"=. c #25AE5F",
"-. c #24AF5F",
";. c #25B05F",
":. c #25B15F",
">. c #25B060",
",. c #25B261",
"<. c #26B461",
"1. c #26B663",
"2. c #27BB65",
"3. c #27BB66",
"4. c #27BC66",
"5. c #27BD67",
"6. c #27BE67",
"7. c #28BC66",
"8. c #28BD66",
"9. c #28BE67",
"0. c #28BF67",
"q. c #28BF68",
"w. c #28C068",
"e. c #29C068",
"r. c #28C069",
"t. c #28C169",
"y. c #29C169",
"u. c #29C269",
"i. c #29C369",
"p. c #28C26A",
"a. c #29C36A",
"s. c #29C76C",
"d. c #2ACA6D",
"f. c #2ACA6E",
"g. c #2ACB6E",
"h. c #2BCD6F",
"j. c #2BCE70",
"k. c #2BCF71",
"l. c #2CCF71",
"z. c #2BD071",
"x. c #2BD171",
"c. c #2BD072",
"v. c #2BD172",
"b. c #2CD071",
"n. c #2CD171",
"m. c #2CD072",
"M. c None",
/* pixels */
"M.M.M.M.M.M.M.M.M.M.M.M.M.M.M.b.b.M.M.M.M.M.M.M.M.M.M.M.M.M.M.M.",
"M.M.M.M.M.M.M.M.M.M.M.M.M.M.M.n.b.M.M.M.M.M.M.M.M.M.M.M.M.M.M.M.",
"M.M.M.M.M.M.M.M.M.M.M.M.M.M.M.z.b.M.M.M.M.M.M.M.M.M.M.M.M.M.M.M.",
"M.M.M.M.M.M.M.M.M.M.M.M.M.z.z.b.z.x.z.M.M.M.M.M.M.M.M.M.M.M.M.M.",
"M.M.M.M.M.M.M.M.M.M.M.M.M.b.j.+.-.z.b.M.M.M.M.M.M.M.M.M.M.M.M.M.",
"M.M.M.M.M.M.M.M.M.M.M.M.M.b.a.  e b.z.M.M.M.M.M.M.M.M.M.M.M.M.M.",
"M.M.M.M.M.M.M.M.M.M.M.M.M.b.i.  q x.z.M.M.M.M.M.M.M.M.M.M.M.M.M.",
"M.M.M.n.z.M.M.M.M.M.M.M.M.b.p.  w z.b.M.M.M.M.M.M.M.M.z.b.M.M.M.",
"M.M.M.z.b.M.M.M.M.M.M.M.M.z.t.  9 b.b.M.M.M.M.M.M.M.M.b.b.M.M.M.",
"M.M.M.b.b.b.b.z.M.M.M.M.M.b.t.  0 m.m.M.M.M.M.M.b.b.v.b.z.M.M.M.",
"M.M.M.z.=.U #.b.M.M.M.M.M.n.w.  8 z.b.M.M.M.M.b.b. .E 3.b.M.M.M.",
"M.M.M.z.R   P b.b.b.M.M.M.m.r.  7 b.z.M.M.M.x.b.b.G   [ b.M.M.M.",
"M.M.M.b.R   a N 9.b.x.M.M.b.0.  6 b.z.M.b.n.b.>.Z i   ` b.M.M.M.",
"M.M.M.b.E       <.b.c.m.M.b.0.  5 n.n.M.z.b.x.}       _ n.M.M.M.",
"M.M.M.M.&.| n   d l z.z.M.b.9.  2 z.b.M.b.u.l f   S { M.M.M.M.M.",
"M.M.M.M.M.z.F     & b.c.M.z.5.  2 b.b.M.b.8.      L z.M.M.M.M.M.",
"M.M.M.M.M.b.s.9.:   o z z.n.8.  < z.z.m.r $   h t.g.b.M.M.M.M.M.",
"M.M.M.M.M.z.n.m.k p   g $.f.7.  , b.d.2.< X u C b.b.b.M.M.M.M.M.",
"M.M.M.M.M.M.b.z.b.b..     %.4.  > b.(     8 b.b.b.M.M.M.M.M.M.M.",
"M.M.M.M.M.M.z.x.b.k.D m   J K   * I A   B H z.n.z.b.M.M.M.M.M.M.",
"M.c.z.b.b.b.b.b.z.z.x.@.                a.m.c.b.b.z.z.m.z.b.b.M.",
"M.M.b.z.] b b v c x b.a.^ ~ Y   = W Q ! h.y.b m M N V o.x.M.M.M.",
"M.M.M.c.T           l.n.b.c.6.  4 n.b.z.z.4.          / b.M.M.M.",
"M.M.M.M.1.*.;.,.,   r t u :.q.  3 c.' - ; ;   s ....X.M.M.M.M.M.",
"M.M.M.M.M.b.b.b.y % # @ o O.e.  1 b.) O @ @ + j z.z.x.M.M.M.M.M.",
"M.M.M.M.M.M.m.b.b.z.z.z.b.z.u.  1 b.b.z.z.z.b.b.b.M.M.M.M.M.M.M.",
"M.M.M.M.M.M.M.x.n.z.b.z.b.n.a.  > z.x.z.b.b.z.b.m.M.M.M.M.M.M.M.",
"M.M.M.M.M.M.M.M.M.M.M.M.M.M.M.M.M.M.M.M.M.M.M.M.M.M.M.M.M.M.M.M.",
"M.M.M.M.M.M.M.M.M.M.M.M.M.M.M.M.M.M.M.M.M.M.M.M.M.M.M.M.M.M.M.M.",
"M.M.M.M.M.M.M.M.M.M.M.M.M.M.M.b.b.M.M.M.M.M.M.M.M.M.M.M.M.M.M.M.",
"M.M.M.M.M.M.M.M.M.M.M.M.M.M.M.b.n.M.M.M.M.M.M.M.M.M.M.M.M.M.M.M.",
"M.M.M.M.M.M.M.M.M.M.M.M.M.M.M.n.z.M.M.M.M.M.M.M.M.M.M.M.M.M.M.M."
};
